<svg xmlns="http://www.w3.org/2000/svg" viewBox="0 0 1200 630" width="1200" height="630"><defs><linearGradient id="sky" x1="0" y1="0" x2="0" y2="1"><stop offset="0" stop-color="#212137"/><stop offset="1" stop-color="#927892"/></linearGradient><radialGradient id="sunglow"><stop offset="0" stop-color="#f3efe2" stop-opacity=".65"/><stop offset="1" stop-color="#f3efe2" stop-opacity="0"/></radialGradient><radialGradient id="vig" cx=".5" cy=".5" r=".75"><stop offset=".6" stop-color="#000" stop-opacity="0"/><stop offset="1" stop-color="#000" stop-opacity=".38"/></radialGradient><filter id="grain" x="0" y="0" width="100%" height="100%"><feTurbulence type="fractalNoise" baseFrequency=".85" numOctaves="2" stitchTiles="stitch"/><feColorMatrix values="0 0 0 0 .5  0 0 0 0 .5  0 0 0 0 .5  0 0 0 .55 0"/></filter><linearGradient id="arch" x1="0" y1="0" x2="0" y2="1"><stop offset="0" stop-color="#1f2035"/><stop offset="1" stop-color="#6d6560"/></linearGradient></defs><rect width="1200" height="630" fill="url(#sky)"/><circle cx="965.6" cy="46.2" r="1.3" fill="#ffffff" opacity="0.4"/><circle cx="880.3" cy="75.4" r="0.8" fill="#ffffff" opacity="0.4"/><circle cx="202.6" cy="293.4" r="0.6" fill="#ffffff" opacity="0.4"/><circle cx="335" cy="97.7" r="1.1" fill="#ffffff" opacity="0.7"/><circle cx="160" cy="95.6" r="1.7" fill="#ffffff" opacity="0.7"/><circle cx="208.6" cy="113.9" r="1.4" fill="#ffffff" opacity="0.4"/><circle cx="195.2" cy="103.1" r="1.9" fill="#ffffff" opacity="0.9"/><circle cx="581.9" cy="121.1" r="0.7" fill="#ffffff" opacity="0.7"/><circle cx="412" cy="43.2" r="1.8" fill="#ffffff" opacity="0.7"/><circle cx="405.9" cy="237.5" r="1.4" fill="#ffffff" opacity="0.6"/><circle cx="677.9" cy="323.5" r="1.8" fill="#ffffff" opacity="0.7"/><circle cx="567.6" cy="73.9" r="2" fill="#ffffff" opacity="0.4"/><circle cx="16.7" cy="22.8" r="2" fill="#ffffff" opacity="0.8"/><circle cx="908.6" cy="215.3" r="1.6" fill="#ffffff" opacity="0.8"/><circle cx="663.4" cy="115.6" r="1.9" fill="#ffffff" opacity="0.7"/><circle cx="875.6" cy="225.4" r="1.8" fill="#ffffff" opacity="0.3"/><circle cx="325.6" cy="315.3" r="2" fill="#ffffff" opacity="0.3"/><circle cx="478.3" cy="9.5" r="1.9" fill="#ffffff" opacity="0.4"/><circle cx="993.2" cy="335.9" r="1.1" fill="#ffffff" opacity="0.6"/><circle cx="113.9" cy="255.5" r="0.8" fill="#ffffff" opacity="0.6"/><circle cx="1187.2" cy="339.1" r="1.4" fill="#ffffff" opacity="0.5"/><circle cx="753.4" cy="301.6" r="1" fill="#ffffff" opacity="0.5"/><circle cx="233.5" cy="41.3" r="2" fill="#ffffff" opacity="0.5"/><circle cx="513.1" cy="259.2" r="1" fill="#ffffff" opacity="0.6"/><circle cx="137.9" cy="86.3" r="1.1" fill="#ffffff" opacity="0.8"/><circle cx="1095.1" cy="158.9" r="2" fill="#ffffff" opacity="0.6"/><circle cx="157.1" cy="146" r="1" fill="#ffffff" opacity="0.9"/><circle cx="1178.5" cy="273.5" r="2" fill="#ffffff" opacity="0.6"/><circle cx="1008.1" cy="81.3" r="1.9" fill="#ffffff" opacity="0.6"/><circle cx="266.2" cy="26.6" r="1.6" fill="#ffffff" opacity="0.7"/><circle cx="1003" cy="184.5" r="2" fill="#ffffff" opacity="0.3"/><circle cx="1040.9" cy="154.5" r="1.8" fill="#ffffff" opacity="0.9"/><circle cx="248.3" cy="67.9" r="1" fill="#ffffff" opacity="0.5"/><circle cx="640" cy="202.6" r="1" fill="#ffffff" opacity="0.3"/><circle cx="1134.9" cy="9" r="1.6" fill="#ffffff" opacity="0.7"/><circle cx="547.6" cy="261.2" r="0.9" fill="#ffffff" opacity="0.7"/><circle cx="11.6" cy="344.8" r="1.2" fill="#ffffff" opacity="0.6"/><circle cx="1000.3" cy="36.7" r="1.1" fill="#ffffff" opacity="0.3"/><circle cx="278.3" cy="168.7" r="1.7" fill="#ffffff" opacity="0.8"/><circle cx="1016.3" cy="104.9" r="0.7" fill="#ffffff" opacity="0.4"/><circle cx="990.4" cy="62.6" r="1.5" fill="#ffffff" opacity="0.8"/><circle cx="1020.3" cy="145.4" r="1.3" fill="#ffffff" opacity="0.4"/><circle cx="343.9" cy="212.9" r="1.8" fill="#ffffff" opacity="0.4"/><circle cx="976.9" cy="105" r="1.6" fill="#ffffff" opacity="0.3"/><circle cx="358.4" cy="265.4" r="0.9" fill="#ffffff" opacity="0.3"/><circle cx="807.1" cy="4.9" r="2" fill="#ffffff" opacity="0.4"/><circle cx="1098.8" cy="40.1" r="1.8" fill="#ffffff" opacity="0.4"/><circle cx="623.2" cy="122" r="1.7" fill="#ffffff" opacity="0.7"/><circle cx="3.6" cy="27" r="1.3" fill="#ffffff" opacity="0.4"/><circle cx="528" cy="91.7" r="1.1" fill="#ffffff" opacity="0.5"/><circle cx="1125.2" cy="22.2" r="1" fill="#ffffff" opacity="0.7"/><circle cx="1199.7" cy="212.1" r="1.7" fill="#ffffff" opacity="0.8"/><circle cx="888.4" cy="35.2" r="0.7" fill="#ffffff" opacity="0.4"/><circle cx="121.6" cy="230.1" r="2" fill="#ffffff" opacity="0.4"/><circle cx="486.3" cy="96.1" r="1.1" fill="#ffffff" opacity="0.8"/><circle cx="684.1" cy="343.7" r="0.9" fill="#ffffff" opacity="0.6"/><circle cx="130.8" cy="165.2" r="2.1" fill="#ffffff" opacity="0.4"/><circle cx="956.7" cy="342.8" r="1.5" fill="#ffffff" opacity="0.5"/><circle cx="713.9" cy="307.1" r="0.6" fill="#ffffff" opacity="0.8"/><circle cx="26.8" cy="73.3" r="1.4" fill="#ffffff" opacity="0.8"/><circle cx="598.9" cy="190.6" r="1.6" fill="#ffffff" opacity="0.3"/><circle cx="275.7" cy="107.4" r="1.2" fill="#ffffff" opacity="0.5"/><circle cx="602.6" cy="43" r="1.6" fill="#ffffff" opacity="0.7"/><circle cx="392.7" cy="64.4" r="1.5" fill="#ffffff" opacity="0.8"/><circle cx="1075.5" cy="83" r="0.8" fill="#ffffff" opacity="0.4"/><circle cx="110.9" cy="235.8" r="1.7" fill="#ffffff" opacity="0.6"/><circle cx="416.8" cy="334.2" r="1.5" fill="#ffffff" opacity="0.5"/><circle cx="1012" cy="18.6" r="1.1" fill="#ffffff" opacity="0.5"/><circle cx="1044.7" cy="127.6" r="1.3" fill="#ffffff" opacity="0.3"/><circle cx="267.8" cy="239.1" r="0.7" fill="#ffffff" opacity="0.7"/><circle cx="1029.3" cy="193.1" r="209.6" fill="url(#sunglow)"/><circle cx="1029.3" cy="193.1" r="49.9" fill="#f3efe2"/><path d="M-20 650 L-20 466.5 L-5 464.4 L10 462.7 L25 461.3 L40 460.3 L55 459.3 L70 458.2 L85 456.8 L100 455 L115 452.8 L130 450.4 L145 448 L160 446 L175 444.8 L190 444.5 L205 445.2 L220 447 L235 449.5 L250 452.5 L265 455.6 L280 458.5 L295 461 L310 462.9 L325 464.3 L340 465.3 L355 466.2 L370 467.3 L385 468.6 L400 470.2 L415 472.1 L430 473.9 L445 475.5 L460 476.6 L475 477 L490 476.6 L505 475.6 L520 474.2 L535 472.7 L550 471.4 L565 470.7 L580 470.9 L595 471.8 L610 473.6 L625 475.8 L640 478.3 L655 480.7 L670 482.8 L685 484.3 L700 485.4 L715 486.1 L730 486.6 L745 487.1 L760 487.9 L775 488.9 L790 490.2 L805 491.4 L820 492.4 L835 492.9 L850 492.5 L865 491.2 L880 488.9 L895 485.7 L910 482.1 L925 478.3 L940 474.7 L955 471.6 L970 469.2 L985 467.6 L1000 466.5 L1015 465.9 L1030 465.3 L1045 464.7 L1060 463.9 L1075 462.7 L1090 461.5 L1105 460.3 L1120 459.4 L1135 459 L1150 459.2 L1165 460.1 L1180 461.4 L1195 463 L1210 464.4 L1220 650 Z" fill="#6a5971" opacity="0.7"/><rect x="173.26087868772447" y="476" width="840" height="30" fill="#4d435a"/><rect x="203.26087868772447" y="504" width="780" height="30" fill="#473f56"/><rect x="233.26087868772447" y="532" width="720" height="30" fill="#423b51"/><rect x="263.26087868772447" y="560" width="660" height="30" fill="#3c364d"/><rect x="233.26087868772447" y="140" width="720" height="340" fill="#4d435a"/><rect x="213.26087868772447" y="110" width="760" height="36" fill="#363248"/><path d="M289.26087868772447 480 L289.26087868772447 304 A84 84 0 0 1 457.26087868772447 304 L457.26087868772447 480 Z" fill="url(#arch)"/><path d="M509.26087868772447 480 L509.26087868772447 304 A84 84 0 0 1 677.2608786877245 304 L677.2608786877245 480 Z" fill="url(#arch)"/><path d="M729.2608786877245 480 L729.2608786877245 304 A84 84 0 0 1 897.2608786877245 304 L897.2608786877245 480 Z" fill="url(#arch)"/><rect x="0" y="592" width="1200" height="630" fill="#3f394f"/><g fill="#1f2035"><circle cx="578.6653587501496" cy="519.6" r="14.4"/><path d="M559.5 630 L564.3 538.8 Q578.6653587501496 529.2 593.1 538.8 L597.9 630 Z"/></g><rect width="1200" height="630" filter="url(#grain)" opacity=".35"/><rect width="1200" height="630" fill="url(#vig)"/></svg>
