<svg xmlns="http://www.w3.org/2000/svg" viewBox="0 0 1200 630" width="1200" height="630"><defs><linearGradient id="sky" x1="0" y1="0" x2="0" y2="1"><stop offset="0" stop-color="#e7c6b6"/><stop offset="1" stop-color="#d28560"/></linearGradient><radialGradient id="sunglow"><stop offset="0" stop-color="#fff1c9" stop-opacity=".65"/><stop offset="1" stop-color="#fff1c9" stop-opacity="0"/></radialGradient><radialGradient id="vig" cx=".5" cy=".5" r=".75"><stop offset=".6" stop-color="#000" stop-opacity="0"/><stop offset="1" stop-color="#000" stop-opacity=".38"/></radialGradient><filter id="grain" x="0" y="0" width="100%" height="100%"><feTurbulence type="fractalNoise" baseFrequency=".85" numOctaves="2" stitchTiles="stitch"/><feColorMatrix values="0 0 0 0 .5  0 0 0 0 .5  0 0 0 0 .5  0 0 0 .55 0"/></filter><linearGradient id="col" x1="0" x2="1"><stop offset="0" stop-color="#965c47"/><stop offset=".55" stop-color="#b08575"/><stop offset="1" stop-color="#77473b"/></linearGradient></defs><rect width="1200" height="630" fill="url(#sky)"/><circle cx="954.7" cy="204.9" r="206" fill="url(#sunglow)"/><circle cx="954.7" cy="204.9" r="49" fill="#fff1c9"/><path d="M-20 650 L-20 468.4 L-5 466.8 L10 465.5 L25 464.5 L40 464.1 L55 464.3 L70 465 L85 466 L100 467 L115 467.6 L130 467.6 L145 466.8 L160 465.1 L175 462.8 L190 460 L205 457.2 L220 454.5 L235 452.4 L250 450.9 L265 450.2 L280 450 L295 450.1 L310 450.4 L325 450.5 L340 450.3 L355 449.9 L370 449.4 L385 448.9 L400 448.7 L415 449.3 L430 450.7 L445 453 L460 456.3 L475 460.3 L490 464.6 L505 469 L520 473 L535 476.4 L550 479.1 L565 481 L580 482.3 L595 483.3 L610 484.3 L625 485.3 L640 486.6 L655 488.2 L670 489.8 L685 491.3 L700 492.4 L715 492.9 L730 492.5 L745 491.2 L760 489.2 L775 486.6 L790 483.8 L805 481.3 L820 479.2 L835 477.8 L850 477.1 L865 477.1 L880 477.6 L895 478.2 L910 478.6 L925 478.7 L940 478.3 L955 477.5 L970 476.3 L985 475 L1000 473.8 L1015 473 L1030 472.8 L1045 473.1 L1060 473.7 L1075 474.5 L1090 475.1 L1105 475.1 L1120 474.4 L1135 472.9 L1150 470.4 L1165 467.3 L1180 463.8 L1195 460.3 L1210 457.2 L1220 650 Z" fill="#b57154" opacity="0.8"/><rect x="453.4" y="152" width="558" height="30" fill="#965c47"/><polygon points="453.4,152 732.4,94 1011.4,152" fill="#965c47"/><rect x="453.4" y="182" width="558" height="12" fill="#77473b"/><rect x="487.4" y="194" width="58" height="12" fill="#77473b"/><rect x="493.4" y="206" width="46" height="252" fill="url(#col)"/><line x1="504.9" y1="208" x2="504.9" y2="456" stroke="#b57154" stroke-opacity=".35" stroke-width="2"/><line x1="516.4" y1="208" x2="516.4" y2="456" stroke="#b57154" stroke-opacity=".35" stroke-width="2"/><line x1="527.9" y1="208" x2="527.9" y2="456" stroke="#b57154" stroke-opacity=".35" stroke-width="2"/><rect x="487.4" y="458" width="58" height="12" fill="#77473b"/><rect x="595.4" y="194" width="58" height="12" fill="#77473b"/><rect x="601.4" y="206" width="46" height="252" fill="url(#col)"/><line x1="612.9" y1="208" x2="612.9" y2="456" stroke="#b57154" stroke-opacity=".35" stroke-width="2"/><line x1="624.4" y1="208" x2="624.4" y2="456" stroke="#b57154" stroke-opacity=".35" stroke-width="2"/><line x1="635.9" y1="208" x2="635.9" y2="456" stroke="#b57154" stroke-opacity=".35" stroke-width="2"/><rect x="595.4" y="458" width="58" height="12" fill="#77473b"/><rect x="703.4" y="194" width="58" height="12" fill="#77473b"/><rect x="709.4" y="206" width="46" height="252" fill="url(#col)"/><line x1="720.9" y1="208" x2="720.9" y2="456" stroke="#b57154" stroke-opacity=".35" stroke-width="2"/><line x1="732.4" y1="208" x2="732.4" y2="456" stroke="#b57154" stroke-opacity=".35" stroke-width="2"/><line x1="743.9" y1="208" x2="743.9" y2="456" stroke="#b57154" stroke-opacity=".35" stroke-width="2"/><rect x="703.4" y="458" width="58" height="12" fill="#77473b"/><rect x="811.4" y="194" width="58" height="12" fill="#77473b"/><rect x="817.4" y="206" width="46" height="252" fill="url(#col)"/><line x1="828.9" y1="208" x2="828.9" y2="456" stroke="#b57154" stroke-opacity=".35" stroke-width="2"/><line x1="840.4" y1="208" x2="840.4" y2="456" stroke="#b57154" stroke-opacity=".35" stroke-width="2"/><line x1="851.9" y1="208" x2="851.9" y2="456" stroke="#b57154" stroke-opacity=".35" stroke-width="2"/><rect x="811.4" y="458" width="58" height="12" fill="#77473b"/><rect x="919.4" y="194" width="58" height="12" fill="#77473b"/><rect x="925.4" y="206" width="46" height="252" fill="url(#col)"/><line x1="936.9" y1="208" x2="936.9" y2="456" stroke="#b57154" stroke-opacity=".35" stroke-width="2"/><line x1="948.4" y1="208" x2="948.4" y2="456" stroke="#b57154" stroke-opacity=".35" stroke-width="2"/><line x1="959.9" y1="208" x2="959.9" y2="456" stroke="#b57154" stroke-opacity=".35" stroke-width="2"/><rect x="919.4" y="458" width="58" height="12" fill="#77473b"/><rect x="433.4" y="470" width="598" height="16" fill="#77473b"/><rect x="411.4" y="484" width="642" height="16" fill="#7b4a3d"/><rect x="389.4" y="498" width="686" height="16" fill="#804d3f"/><rect x="0" y="512" width="1200" height="630" fill="#885342"/><rect width="1200" height="630" filter="url(#grain)" opacity=".35"/><rect width="1200" height="630" fill="url(#vig)"/></svg>
