<svg xmlns="http://www.w3.org/2000/svg" viewBox="0 0 1200 630" width="1200" height="630"><defs><linearGradient id="sky" x1="0" y1="0" x2="0" y2="1"><stop offset="0" stop-color="#222c24"/><stop offset="1" stop-color="#949a52"/></linearGradient><radialGradient id="sunglow"><stop offset="0" stop-color="#f3efe2" stop-opacity=".65"/><stop offset="1" stop-color="#f3efe2" stop-opacity="0"/></radialGradient><radialGradient id="vig" cx=".5" cy=".5" r=".75"><stop offset=".6" stop-color="#000" stop-opacity="0"/><stop offset="1" stop-color="#000" stop-opacity=".38"/></radialGradient><filter id="grain" x="0" y="0" width="100%" height="100%"><feTurbulence type="fractalNoise" baseFrequency=".85" numOctaves="2" stitchTiles="stitch"/><feColorMatrix values="0 0 0 0 .5  0 0 0 0 .5  0 0 0 0 .5  0 0 0 .55 0"/></filter></defs><rect width="1200" height="630" fill="url(#sky)"/><circle cx="400.3" cy="66.3" r="1" fill="#ffffff" opacity="0.3"/><circle cx="158.8" cy="277.2" r="1.4" fill="#ffffff" opacity="0.3"/><circle cx="602.1" cy="186.4" r="1.8" fill="#ffffff" opacity="0.7"/><circle cx="887.6" cy="91" r="2" fill="#ffffff" opacity="0.5"/><circle cx="963" cy="264.6" r="1.2" fill="#ffffff" opacity="0.7"/><circle cx="104.5" cy="154.2" r="1.7" fill="#ffffff" opacity="0.6"/><circle cx="400.2" cy="129.8" r="1.7" fill="#ffffff" opacity="0.6"/><circle cx="299.1" cy="113.3" r="2.1" fill="#ffffff" opacity="0.8"/><circle cx="1042.9" cy="187.7" r="1.5" fill="#ffffff" opacity="0.3"/><circle cx="1135.8" cy="232.2" r="1.5" fill="#ffffff" opacity="0.4"/><circle cx="609.8" cy="7.7" r="0.9" fill="#ffffff" opacity="0.5"/><circle cx="194.6" cy="299.4" r="1.3" fill="#ffffff" opacity="0.8"/><circle cx="1198" cy="258.6" r="1" fill="#ffffff" opacity="0.6"/><circle cx="1064.6" cy="317.4" r="0.8" fill="#ffffff" opacity="0.3"/><circle cx="1034.2" cy="89.4" r="1.2" fill="#ffffff" opacity="0.8"/><circle cx="112.3" cy="331.6" r="1.8" fill="#ffffff" opacity="0.4"/><circle cx="493.1" cy="266.2" r="0.7" fill="#ffffff" opacity="0.8"/><circle cx="825.9" cy="325.8" r="1.6" fill="#ffffff" opacity="0.5"/><circle cx="462.6" cy="188.5" r="0.6" fill="#ffffff" opacity="0.3"/><circle cx="440.5" cy="312.4" r="0.6" fill="#ffffff" opacity="0.4"/><circle cx="524.4" cy="222.5" r="1" fill="#ffffff" opacity="0.7"/><circle cx="161.8" cy="247.6" r="0.9" fill="#ffffff" opacity="0.3"/><circle cx="177.5" cy="303.3" r="1" fill="#ffffff" opacity="0.8"/><circle cx="339.6" cy="272.3" r="0.9" fill="#ffffff" opacity="0.5"/><circle cx="1054.2" cy="185.3" r="1.8" fill="#ffffff" opacity="0.5"/><circle cx="945.4" cy="172.8" r="2" fill="#ffffff" opacity="0.7"/><circle cx="521.9" cy="129.6" r="2" fill="#ffffff" opacity="0.6"/><circle cx="454.3" cy="29.1" r="1" fill="#ffffff" opacity="0.4"/><circle cx="980.2" cy="160.2" r="1.5" fill="#ffffff" opacity="0.3"/><circle cx="1184.4" cy="302" r="1.2" fill="#ffffff" opacity="0.5"/><circle cx="17.6" cy="185.6" r="2.1" fill="#ffffff" opacity="0.5"/><circle cx="31.8" cy="101.8" r="1.2" fill="#ffffff" opacity="0.8"/><circle cx="514.3" cy="106.1" r="1.2" fill="#ffffff" opacity="0.7"/><circle cx="110.9" cy="211.2" r="0.7" fill="#ffffff" opacity="0.4"/><circle cx="1048.4" cy="208.3" r="0.7" fill="#ffffff" opacity="0.5"/><circle cx="523.6" cy="55.3" r="0.7" fill="#ffffff" opacity="0.8"/><circle cx="616.7" cy="184.1" r="1.7" fill="#ffffff" opacity="0.7"/><circle cx="828.6" cy="75.7" r="1.9" fill="#ffffff" opacity="0.5"/><circle cx="45.4" cy="332.7" r="1.3" fill="#ffffff" opacity="0.6"/><circle cx="1127.7" cy="292.3" r="1.9" fill="#ffffff" opacity="0.5"/><circle cx="122.1" cy="201" r="2.1" fill="#ffffff" opacity="0.5"/><circle cx="734" cy="293.2" r="0.9" fill="#ffffff" opacity="0.7"/><circle cx="642" cy="111.7" r="1.9" fill="#ffffff" opacity="0.4"/><circle cx="759.4" cy="275.7" r="1.2" fill="#ffffff" opacity="0.9"/><circle cx="279.3" cy="24.1" r="1.3" fill="#ffffff" opacity="0.4"/><circle cx="1115.3" cy="245.9" r="1.2" fill="#ffffff" opacity="0.6"/><circle cx="378.7" cy="325.6" r="1.5" fill="#ffffff" opacity="0.8"/><circle cx="715.9" cy="109.6" r="1.2" fill="#ffffff" opacity="0.4"/><circle cx="713" cy="233.5" r="1.2" fill="#ffffff" opacity="0.4"/><circle cx="146" cy="289.1" r="1.2" fill="#ffffff" opacity="0.8"/><circle cx="631.7" cy="201.9" r="1" fill="#ffffff" opacity="0.4"/><circle cx="1088.9" cy="322.3" r="1.3" fill="#ffffff" opacity="0.4"/><circle cx="405.5" cy="315.8" r="1.7" fill="#ffffff" opacity="0.8"/><circle cx="198.7" cy="198.8" r="1.6" fill="#ffffff" opacity="0.5"/><circle cx="702.8" cy="163.7" r="0.6" fill="#ffffff" opacity="0.5"/><circle cx="509.7" cy="76.8" r="1.8" fill="#ffffff" opacity="0.4"/><circle cx="1015.1" cy="279.5" r="1" fill="#ffffff" opacity="0.6"/><circle cx="583.4" cy="113.7" r="1.2" fill="#ffffff" opacity="0.9"/><circle cx="737.5" cy="79.7" r="2.1" fill="#ffffff" opacity="0.4"/><circle cx="688.2" cy="97.8" r="0.7" fill="#ffffff" opacity="0.6"/><circle cx="959.7" cy="20.4" r="0.9" fill="#ffffff" opacity="0.5"/><circle cx="854.5" cy="146.7" r="1.4" fill="#ffffff" opacity="0.8"/><circle cx="108.1" cy="116.2" r="0.8" fill="#ffffff" opacity="0.8"/><circle cx="40.5" cy="280.1" r="2" fill="#ffffff" opacity="0.5"/><circle cx="753.5" cy="262.1" r="2.1" fill="#ffffff" opacity="0.6"/><circle cx="841.9" cy="91.5" r="2.1" fill="#ffffff" opacity="0.3"/><circle cx="1165.1" cy="273.5" r="1.2" fill="#ffffff" opacity="0.5"/><circle cx="438.3" cy="99.2" r="0.8" fill="#ffffff" opacity="0.6"/><circle cx="599.3" cy="59.5" r="1.7" fill="#ffffff" opacity="0.9"/><circle cx="831.5" cy="142.1" r="1.3" fill="#ffffff" opacity="0.5"/><circle cx="682.9" cy="203.8" r="231.1" fill="url(#sunglow)"/><circle cx="682.9" cy="203.8" r="55" fill="#f3efe2"/><rect x="0" y="400" width="1200" height="630" fill="#404930"/><path d="M0 420 Q300 406 600 420 T1200 420" stroke="#363f2c" stroke-width="2" fill="none" opacity="0.7"/><path d="M0 444 Q300 429 600 444 T1200 444" stroke="#363f2c" stroke-width="2" fill="none" opacity="0.6"/><path d="M0 468 Q300 452 600 468 T1200 468" stroke="#363f2c" stroke-width="2" fill="none" opacity="0.6"/><path d="M0 492 Q300 475 600 492 T1200 492" stroke="#363f2c" stroke-width="2" fill="none" opacity="0.5"/><path d="M0 516 Q300 498 600 516 T1200 516" stroke="#363f2c" stroke-width="2" fill="none" opacity="0.5"/><path d="M0 540 Q300 521 600 540 T1200 540" stroke="#363f2c" stroke-width="2" fill="none" opacity="0.5"/><path d="M0 564 Q300 544 600 564 T1200 564" stroke="#363f2c" stroke-width="2" fill="none" opacity="0.4"/><path d="M0 588 Q300 567 600 588 T1200 588" stroke="#363f2c" stroke-width="2" fill="none" opacity="0.3"/><path d="M0 612 Q300 590 600 612 T1200 612" stroke="#363f2c" stroke-width="2" fill="none" opacity="0.3"/><path d="M640.7 168.4 A150 150 0 1 1 592.2 133.3" stroke="#202923" stroke-width="34" stroke-linecap="round" fill="none" opacity="0.92"/><path d="M644.4 165 A155 155 0 1 1 594.2 128.8" stroke="#202923" stroke-width="18" stroke-linecap="round" fill="none" opacity="0.5"/><path d="M636.3 172.5 A144 144 0 1 1 589.7 138.8" stroke="#202923" stroke-width="10" stroke-linecap="round" fill="none" opacity="0.4"/><ellipse cx="484.7" cy="538.9" rx="40" ry="20" fill="#202923"/><ellipse cx="476.7" cy="532.9" rx="22" ry="8" fill="#fff" opacity=".12"/><ellipse cx="744.6" cy="540.4" rx="62.2" ry="31.1" fill="#202923"/><ellipse cx="732.2" cy="531.1" rx="34.2" ry="12.4" fill="#fff" opacity=".12"/><ellipse cx="252.8" cy="579.3" rx="69.1" ry="34.5" fill="#202923"/><ellipse cx="239" cy="568.9" rx="38" ry="13.8" fill="#fff" opacity=".12"/><rect width="1200" height="630" filter="url(#grain)" opacity=".35"/><rect width="1200" height="630" fill="url(#vig)"/></svg>
